<svg width="24" height="24" viewBox="0 0 24 24" fill="none" xmlns="http://www.w3.org/2000/svg">
<path d="M15.0938 8.01562V6C15.0938 4.3125 13.6875 2.90625 12 2.90625C10.3125 2.90625 8.90625 4.3125 8.90625 6V8.01562H15.0938ZM12 17.0156C13.0781 17.0156 14.0156 16.0781 14.0156 15C14.0156 13.9219 13.0781 12.9844 12 12.9844C10.9219 12.9844 9.98438 13.9219 9.98438 15C9.98438 16.0781 10.9219 17.0156 12 17.0156ZM18 8.01562C19.0781 8.01562 20.0156 8.90625 20.0156 9.98438V20.0156C20.0156 21.0938 19.0781 21.9844 18 21.9844H6C4.92188 21.9844 3.98438 21.0938 3.98438 20.0156V9.98438C3.98438 8.90625 4.92188 8.01562 6 8.01562H6.98438V6C6.98438 3.23438 9.23438 0.984375 12 0.984375C14.7656 0.984375 17.0156 3.23438 17.0156 6V8.01562H18Z" fill="black"/>
</svg>
